<svg xmlns="http://www.w3.org/2000/svg" width="928.79" height="709" viewBox="0 0 928.79134 708.99962" data-name="Layer 1"><path fill="#f2f2f2" d="m364.59 146.55 3.39.83c-1.53.22-3.06.43-4.59.62h-56.54q-6.36-.81-12.65-2a197.14 197.14 0 0 1-70.96-28.11c-13.27-8.63-25.92-19.24-32.79-33.49-9.33-19.35-6.07-43.85 7.25-60.7a60.77 60.77 0 0 1 17.59-15 60.28 60.28 0 0 1 3.07-1.65A66.06 66.06 0 0 1 254.85.37c21.35 2.33 41.05 15.37 52.42 33.59 12.57 20.12 14.98 44.74 17.08 68.37 3.81-12.26 18.11-19.75 30.66-17.04 12.54 2.7 22.22 14.41 23.78 27.15 1.53 12.46-4.13 25.25-13.56 33.56l-.64.55Z"/><path fill="#fff" d="M320.99 148h-2.83a2.06 2.06 0 0 1-.63-.85c-.16-.38-.31-.77-.48-1.15a342.78 342.78 0 0 0-30.92-58.27 345.22 345.22 0 0 0-70.17-77.55 1.61 1.61 0 0 1-.67-1.48 2.18 2.18 0 0 1 3.52-1.37 345.77 345.77 0 0 1 48.25 47.92 351.19 351.19 0 0 1 38.06 56.32A349 349 0 0 1 321.39 146l.03.08a1.56 1.56 0 0 1-.43 1.92Z"/><path fill="#3f3d56" d="M558 146H19a19.02 19.02 0 0 0-19 19v58a19.02 19.02 0 0 0 19 19h539a19.02 19.02 0 0 0 19-19v-58a19.02 19.02 0 0 0-19-19Zm17 77a17.02 17.02 0 0 1-17 17H19a17.02 17.02 0 0 1-17-17v-58a17.02 17.02 0 0 1 17-17h539a17.02 17.02 0 0 1 17 17ZM558 379H19a19.02 19.02 0 0 1-19-19v-58a19.02 19.02 0 0 1 19-19h539a19.02 19.02 0 0 1 19 19v58a19.02 19.02 0 0 1-19 19ZM19 285a17.02 17.02 0 0 0-17 17v58a17.02 17.02 0 0 0 17 17h539a17.02 17.02 0 0 0 17-17v-58a17.02 17.02 0 0 0-17-17ZM558 516H19a19.02 19.02 0 0 1-19-19v-58a19.02 19.02 0 0 1 19-19h539a19.02 19.02 0 0 1 19 19v58a19.02 19.02 0 0 1-19 19ZM19 422a17.02 17.02 0 0 0-17 17v58a17.02 17.02 0 0 0 17 17h539a17.02 17.02 0 0 0 17-17v-58a17.02 17.02 0 0 0-17-17Z"/><path fill="#4150f5" d="M107.83 226.5h-32a16.52 16.52 0 0 1-16.5-16.5v-32a16.52 16.52 0 0 1 16.5-16.5h32a16.52 16.52 0 0 1 16.5 16.5v32a16.52 16.52 0 0 1-16.5 16.5Z"/><path fill="#ccc" d="M509.17 221h-353a8 8 0 1 1 0-16h353a8 8 0 0 1 0 16ZM394.17 187h-238a8 8 0 1 1 0-16h238a8 8 0 0 1 0 16Z"/><path fill="#4150f5" d="M107.83 363.5h-32a16.52 16.52 0 0 1-16.5-16.5v-32a16.52 16.52 0 0 1 16.5-16.5h32a16.52 16.52 0 0 1 16.5 16.5v32a16.52 16.52 0 0 1-16.5 16.5Z"/><path fill="#ccc" d="M509.17 358h-353a8 8 0 1 1 0-16h353a8 8 0 0 1 0 16ZM394.17 324h-238a8 8 0 1 1 0-16h238a8 8 0 0 1 0 16Z"/><path fill="#4150f5" d="M107.83 500.5h-32a16.52 16.52 0 0 1-16.5-16.5v-32a16.52 16.52 0 0 1 16.5-16.5h32a16.52 16.52 0 0 1 16.5 16.5v32a16.52 16.52 0 0 1-16.5 16.5Z"/><path fill="#ccc" d="M509.17 495h-353a8 8 0 1 1 0-16h353a8 8 0 0 1 0 16ZM394.17 461h-238a8 8 0 1 1 0-16h238a8 8 0 0 1 0 16Z"/><circle cx="570" cy="152" r="23" fill="#3f3d56"/><path fill="#fff" d="M579 161.5a1 1 0 0 1-.7-.3l-18-18a1 1 0 0 1 1.4-1.4l18 18a1 1 0 0 1-.7 1.7Z"/><path fill="#fff" d="M561 161.5a1 1 0 0 1-.7-1.7l18-18a1 1 0 0 1 1.4 1.4l-18 18a1 1 0 0 1-.7.3Z"/><circle cx="801.51" cy="370.97" r="53.52" fill="#4150f5"/><path fill="#2f2e41" d="M805.44 701.81V578.8a6.5 6.5 0 0 1 6.5-6.5h14.76a6.5 6.5 0 0 1 6.5 6.5V701.8a6.5 6.5 0 0 1-6.5 6.5h-14.76a6.5 6.5 0 0 1-6.5-6.5ZM774.25 701.81V578.8a6.5 6.5 0 0 1 6.5-6.5h14.76a6.5 6.5 0 0 1 6.5 6.5V701.8a6.5 6.5 0 0 1-6.5 6.5h-14.76a6.5 6.5 0 0 1-6.5-6.5Z"/><path fill="#2f2e41" d="M835.65 593.26h-67.06a7 7 0 0 1-7-7V477.32a40.53 40.53 0 0 1 81.06 0v108.94a7 7 0 0 1-7 7ZM756.31 394.63l.06-2c-3.72-.1-7-.34-9.47-2.14a6.15 6.15 0 0 1-2.38-4.53 3.51 3.51 0 0 1 1.16-2.9c1.63-1.38 4.26-.93 6.18-.05l1.66.76-3.18-23.2-1.98.28 2.7 19.73c-2.6-.77-5.02-.44-6.68.96a5.47 5.47 0 0 0-1.86 4.49 8.13 8.13 0 0 0 3.2 6.07c3.17 2.32 7.29 2.43 10.6 2.53ZM761.79 362.55h10.77v2h-10.77z"/><path fill="#4150f5" d="M822.68 586.19a6.45 6.45 0 0 1-2.09-4.52l-5.1-122.9a6.5 6.5 0 0 1 6.23-6.77l14.75-.61a6.5 6.5 0 0 1 6.76 6.22l5.1 122.91a6.5 6.5 0 0 1-6.23 6.77l-14.75.6a6.56 6.56 0 0 1-1.4-.08 6.45 6.45 0 0 1-3.27-1.62Z"/><path fill="#2f2e41" d="M841.5 503h-24a6.5 6.5 0 0 1-6.5-6.5v-34a18.5 18.5 0 0 1 37 0v34a6.5 6.5 0 0 1-6.5 6.5Z"/><path fill="#4150f5" d="m687.38 548.55-9.41-11.37a6.5 6.5 0 0 1 .86-9.16l94.79-78.41a6.5 6.5 0 0 1 9.15.86l9.4 11.38a6.5 6.5 0 0 1-.86 9.15l-94.78 78.41a6.5 6.5 0 0 1-8.14.12 6.56 6.56 0 0 1-1.01-.98Z"/><path fill="#2f2e41" d="m757.28 497.47-15.2-18.57a6.5 6.5 0 0 1 .9-9.15l26.31-21.53a18.5 18.5 0 1 1 23.44 28.63l-26.3 21.53a6.5 6.5 0 0 1-9.15-.9Z"/><path fill="#3f3d56" d="m692.69 501.99-.27.23-6.47-7.38a5.68 5.68 0 0 0-8.01-.53L662.29 508a5.68 5.68 0 0 0-.53 8l35.46 40.52a5.68 5.68 0 0 0 8.01.53l15.65-13.69a5.68 5.68 0 0 0 .53-8.02l-24.4-27.87.28-.23Z" data-name="Path 22"/><path fill="#fff" d="m679.67 496.67-1.95 1.7a1.92 1.92 0 0 1 .4 3.17l-8.55 7.48a1.92 1.92 0 0 1-3.08-.82l-1.82 1.6a4.05 4.05 0 0 0-.38 5.7l33.78 38.59a4.05 4.05 0 0 0 5.7.38l15-13.13a4.05 4.05 0 0 0 .38-5.7l-33.77-38.6a4.05 4.05 0 0 0-5.71-.37Z" data-name="Path 23"/><path fill="#2f2e41" d="M814.93 380.03c2.78-4.66 4.97-9.79 3.93-15.3-.92-4.93-4.47-8.77-9.57-9.27-3.07-.3-6.12.52-9.12 1.05a34.25 34.25 0 0 1-7.45.48 37 37 0 0 1-14.45-3.66A35.47 35.47 0 0 1 759.21 331c-3.04-11.08-.78-23.65 6.45-32.66l-2.51-.67 3.26 10.73a1.52 1.52 0 0 0 2.2.9 51.66 51.66 0 0 1 40.2-6.43 48.95 48.95 0 0 1 11.04 4.24c1.7.9 3.22-1.68 1.51-2.6a54.7 54.7 0 0 0-42.91-3.28 52.21 52.21 0 0 0-11.35 5.47l2.2.9-3.26-10.72a1.51 1.51 0 0 0-2.5-.67 40.2 40.2 0 0 0-8.25 30.49 37.94 37.94 0 0 0 16.43 26.32 40.46 40.46 0 0 0 30.55 6.14c2.94-.57 6.27-1.37 9.15-.15a7.9 7.9 0 0 1 4.24 5.21c1.63 5.53-1.15 10.79-3.99 15.39Z"/><path fill="#ccc" d="M788.12 485.25h-.04a2.47 2.47 0 0 1-2.4-1.93l.2-41.66a2.54 2.54 0 0 1 1.4-2.86c7.25-3.4 14.74-3.86 22.91-1.4a2.5 2.5 0 0 1 1.7 3.05l-21.36 42.94a2.47 2.47 0 0 1-2.41 1.86Z"/><path fill="#3f3d56" d="M927.8 709h-248a1 1 0 0 1 0-2h248a1 1 0 0 1 0 2Z"/></svg>