<svg xmlns="http://www.w3.org/2000/svg" width="534.2" height="457.92" data-name="Layer 1" viewBox="0 0 534.2 457.92"><path fill="#ffb8b8" d="M223.15 445.59h12.26l5.83-47.28h-18.1l.01 47.28z"/><path fill="#2f2e41" d="M259.05 456.98h-38.53v-14.89h23.64a14.89 14.89 0 0 1 14.89 14.89Z"/><path fill="#ffb8b8" d="m110 438.56 12.01 2.48 15.29-45.12-17.72-3.67-9.58 46.31z"/><path fill="#2f2e41" d="m142.86 456.98-37.73-7.8 3.01-14.58 23.15 4.78a14.89 14.89 0 0 1 11.57 17.6Z"/><path fill="#ffb8b8" d="M143.26 286.41a10.06 10.06 0 0 1 1.44-15.35l-9.51-34.45 17.66 5.73 6.33 31.83a10.11 10.11 0 0 1-15.92 12.24Z"/><path fill="#2f2e41" d="M219.56 428.25a4.5 4.5 0 0 1-4.44-3.78l-22.85-125.9a1.5 1.5 0 0 0-2.86-.36l-50.9 117.76a4.53 4.53 0 0 1-5.56 2.49l-17.88-6.01a4.5 4.5 0 0 1-2.74-5.97l24.61-60.28 20.55-90.96.14-.1c.4-.3 39.92-29.8 66.93-6.21 24.71 21.6 20.11 144.99 18.94 169.5a4.47 4.47 0 0 1-3.42 4.15l-19.42 5.54a4.57 4.57 0 0 1-1.1.13Z"/><circle cx="180.83" cy="124" r="24.56" fill="#ffb8b8"/><path fill="#ffb8b8" d="M228.59 275.41a10.06 10.06 0 0 1 1.44-15.35l-9.51-34.45 17.66 5.73 6.33 31.83a10.11 10.11 0 0 1-15.92 12.24Z"/><path fill="#4100f5" d="M153.61 265.6a2.62 2.62 0 0 1-1-.2c-10.36-4.22-2.1-86.52-1.74-90.02l.04-.15.78-1.72a29.65 29.65 0 0 1 30.07-17.33 30.5 30.5 0 0 1 27.13 22.53l19.22 70.41a4.5 4.5 0 0 1-5.32 5.58c-14.95-3.34-51.19-9.27-64.7 7.77-1.66 2.1-3.13 3.12-4.48 3.12Z"/><path fill="#4100f5" d="M228.09 258.83a4.52 4.52 0 0 1-1.45-.24 4.46 4.46 0 0 1-2.63-2.35l-16.73-35.66L191 173.73a11.1 11.1 0 0 1 2.85-11.68 11.08 11.08 0 0 1 17.68 3.4l21.66 46.78 16.9 30.52a4.5 4.5 0 0 1-1.87 6.18l-18.06 9.4a4.48 4.48 0 0 1-2.07.5ZM155 267.6a4.5 4.5 0 0 1-.48-.03l-20.25-2.15a4.5 4.5 0 0 1-3.98-5.13l5.75-38.96 12.31-48.04a11.1 11.1 0 0 1 8.82-8.17 11.08 11.08 0 0 1 12.87 12.6l-7.8 50.96-2.76 34.78a4.5 4.5 0 0 1-4.48 4.14Z"/><path fill="#2f2e41" d="m184.71 110.8 20.42-1.5a20.86 20.86 0 0 0-12.73-22.38c-8.7-3.3-19.5.36-22.84 5.63a29.05 29.05 0 1 0 8.95 55.63c-8.42-11.83-4.1-30.62 6.2-37.39Z"/><path fill="#2f2e41" d="M147.6 99.52c-6.34-5.8-14.08-10.42-22.6-11.44s-17.82 2.1-22.73 9.14-4.05 17.98 2.85 23.08a17.83 17.83 0 0 1-7.92 31.96c-12.66 1.93-22.2 14.98-21.25 27.76s11.42 23.91 23.9 26.78 26.15-2.06 34.87-11.45 12.61-22.72 11.62-35.5-6.6-24.94-14.66-34.9c-2.19-2.7-.54-6.99 2.27-9.03s6.4-2.62 9.68-3.75 6.7-3.24 7.45-6.63-3.09-7.36-3.49-6.02Z"/><path fill="#3f3d56" d="M517.2 175h-141a17.02 17.02 0 0 1-17-17V17a17.02 17.02 0 0 1 17-17h141a17.02 17.02 0 0 1 17 17v141a17.02 17.02 0 0 1-17 17ZM376.2 2a15.02 15.02 0 0 0-15 15v141a15.02 15.02 0 0 0 15 15h141a15.02 15.02 0 0 0 15-15V17a15.02 15.02 0 0 0-15-15Z"/><path fill="#4100f5" d="M442.18 114.15a20.64 20.64 0 0 1-15.42-6.71c-4.56-4.99-6.8-12.22-6.13-19.84a30.12 30.12 0 0 1 8.08-18.17 24.1 24.1 0 0 1 17.45-7.74 21.67 21.67 0 0 1 16.15 7.12 25.42 25.42 0 0 1 6.24 19.43c-.68 7.75-3.69 14.33-8.7 19.03a25.68 25.68 0 0 1-17.67 6.88Zm3.98-45.13c-9.27 0-17.27 8.44-18.22 19.22-.5 5.58 1.05 10.77 4.23 14.25a13.22 13.22 0 0 0 10.01 4.32c8.65 0 17.9-5.94 19.07-19.21a18.08 18.08 0 0 0-4.35-13.84 14.41 14.41 0 0 0-10.74-4.74Zm18.74 18.9Z"/><path fill="#4100f5" d="M477.03 114.24a13.96 13.96 0 0 1-2.44-.2 15.84 15.84 0 0 1-10.47-6.82c-2.6-3.87-3.7-9.07-3.18-15.03l2.39-27.14a3.67 3.67 0 0 1 7.3.64l-2.39 27.15c-.68 7.78 2.17 13 7.63 13.97 1.88.34 5.25-.18 8.57-2.73 3.4-2.6 7.65-7.98 8.6-18.82 1.1-12.43-2.08-23.11-9.19-30.88-7.45-8.13-18.73-12.44-32.63-12.44-25.53 0-48.12 20.77-50.36 46.3a44.53 44.53 0 0 0 1.02 14.33 3.67 3.67 0 0 1-7.12 1.72 51.85 51.85 0 0 1-1.2-16.7 58.96 58.96 0 0 1 57.66-52.98c16 0 29.16 5.13 38.04 14.82 8.41 9.19 12.35 22.14 11.09 36.48-1.19 13.5-6.88 20.5-11.45 24a20.02 20.02 0 0 1-11.87 4.33ZM442.47 141.22a49.5 49.5 0 0 1-32.79-12.07 3.67 3.67 0 1 1 4.84-5.5 42.18 42.18 0 0 0 27.95 10.24c8.23 0 13.2-.55 20.95-3.8a3.67 3.67 0 1 1 2.84 6.76c-8.86 3.72-14.73 4.37-23.79 4.37Z"/><path fill="#ccc" d="M382 457.92H1a1 1 0 0 1 0-2h381a1 1 0 0 1 0 2Z"/></svg>