<svg data-name="Layer 1" xmlns="http://www.w3.org/2000/svg" width="848" height="727.3" viewBox="0 0 848 727.3"><path d="M652 507a7 7 0 01-7-7l-1-16a7 7 0 016-7l124-8a15 15 0 112 30l-124 8z" fill="#4150f5"/><path d="M676 509a7 7 0 01-7-7l-1-24a7 7 0 017-7l102-4a7 7 0 017 7l1 24a7 7 0 01-6 7l-103 4zM796 727h-16a7 7 0 01-7-7V588a7 7 0 017-7h16a7 7 0 017 7v132a7 7 0 01-7 7zM758 727h-16a7 7 0 01-7-7V588a7 7 0 017-7h16a7 7 0 017 7v132a7 7 0 01-7 7z" fill="#2f2e41"/><circle cx="771.8" cy="387.4" r="55" fill="#4150f5"/><path d="M742 406a13 13 0 01-5-3 9 9 0 01-2-7 6 6 0 012-4h8l-1-22h3v26l-2-1c-2-2-5-3-7-1a4 4 0 00-1 3 7 7 0 002 5c2 2 6 3 10 3l-1 3a36 36 0 01-6-2zM722 371v-2l12 2-1 2zM758 376l1-2 11 2v2zM808 623h-83a9 9 0 01-9-7 9 9 0 010-3l24-134a28 28 0 0127-23 60 60 0 0160 60v88a19 19 0 01-19 19z" fill="#2f2e41"/><path d="M792 611a7 7 0 01-7 4h-16a7 7 0 01-6-8l5-124a15 15 0 1130 1l-6 124a7 7 0 010 3z" fill="#4150f5"/><path d="M800 578a7 7 0 01-7 4l-27-1a7 7 0 01-7-7l5-103a7 7 0 017-6l27 1a7 7 0 017 7l-4 102a7 7 0 01-1 3zM769 352c-12 4-30 9-38-5a23 23 0 01-1-18c2-7 7-12 13-16 11-7 24-9 37-6a50 50 0 0117 7c6 4 11 10 15 16s9 12 16 14c6 3 14 2 18-3a12 12 0 002-4c1-2-2-3-3-1-2 6-10 8-16 6-7-3-12-10-17-16-4-6-9-11-15-15a53 53 0 00-18-7c-13-3-27-1-38 7a37 37 0 00-14 16 26 26 0 000 20 21 21 0 0016 12c7 2 14 0 21-2l6-2c1-1 1-4-1-3z" fill="#2f2e41"/><path d="M48 0h376a48 48 0 0149 48v206a48 48 0 01-49 48H48a48 48 0 01-48-48V48A48 48 0 0148 0z" fill="#f2f2f2"/><path d="M48 14h376a34 34 0 0135 34v206a34 34 0 01-35 34H48a34 34 0 01-34-34V48a34 34 0 0134-34z" fill="#fff"/><path d="M52 376a9 9 0 01-4-1 8 8 0 01-5-8v-71l95-3-80 80a8 8 0 01-6 3z" fill="#f2f2f2"/><rect x="73.8" y="65.1" width="324" height="41" rx="20.5" fill="#f2f2f2"/><rect x="74.3" y="130.5" width="324" height="41" rx="20.5" fill="#f2f2f2"/><rect x="74.7" y="196" width="324" height="41" rx="20.5" fill="#f2f2f2"/><path d="M642 105H266a48 48 0 00-48 48v206a48 48 0 0048 48h376a48 48 0 0048-48V153a48 48 0 00-48-48z" fill="#e6e6e6"/><path d="M642 119H266a34 34 0 00-34 34v206a34 34 0 0034 34h376a34 34 0 0035-34V153a34 34 0 00-35-34z" fill="#fff"/><path d="M614 478l-81-80 95 3v71a8 8 0 01-5 8 9 9 0 01-3 1 8 8 0 01-6-3z" fill="#e6e6e6"/><circle cx="371.2" cy="256.1" r="26" fill="#4150f5"/><circle cx="454.2" cy="256.1" r="26" fill="#4150f5"/><circle cx="537.2" cy="256.1" r="26" fill="#4150f5"/></svg>