<svg xmlns="http://www.w3.org/2000/svg" width="892.61" height="540.8" data-name="Layer 1" viewBox="0 0 892.61 540.8"><circle cx="73.9" cy="71.33" r="46" fill="#ff6584"/><ellipse cx="444" cy="522.8" fill="#e6e6e6" rx="444" ry="18"/><circle cx="113" cy="184.22" r="113" fill="#4100f5"/><path fill="#3f3d56" d="M123.89 524.58h-23.14L111.3 167.2l12.59 357.38z"/><path fill="#3f3d56" d="m113.34 234.93 24.85-34.37L113 243.44l-2.72-4.76 3.06-3.75zM110.62 269.65l-24.85-34.38 25.19 42.89 2.72-4.77-3.06-3.74zM827.51 524.96h-23.15l10.55-357.38 12.6 357.38z"/><path fill="#3f3d56" d="m816.95 235.31 24.85-34.38-25.19 42.89-2.72-4.77 3.06-3.74zM814.23 270.03l-24.84-34.38 25.18 42.89 2.73-4.77-3.07-3.74z"/><circle cx="459.06" cy="314.39" r="210.5" fill="#3f3d56"/><circle cx="459.06" cy="314.39" r="193.08" fill="#fff"/><circle cx="458.36" cy="315.09" r="25.79" fill="#3f3d56"/><path fill="#3f3d56" d="M452.78 131.07h11.15v20.91h-11.15zM452.78 478.2h11.15v20.91h-11.15zM295.26 309.51v11.15h-20.91v-11.15zM642.38 309.52v11.15h-20.91v-11.15zM450.92 326.29l9.54-21.8 119.42 66.15-128.96-44.35zM431.87 53.01h54.37v62.73h-54.37z"/><ellipse cx="459.06" cy="53.01" fill="#3f3d56" rx="62.73" ry="17.43"/><path fill="#ffb8b8" d="m576.5 351.68-3.48 4.88s-16.03 18.82-16.73 9.76S568.14 351 568.14 351l6.97-4.18ZM675.72 368.15l2.92 5.23s10.15 22.55 1.66 19.3-8.78-17.27-8.78-17.27l-.8-8.1Z"/><circle cx="660.03" cy="254.04" r="21.22" fill="#2f2e41"/><path fill="#ffb8b8" d="m658.06 428.36 2.79 18.12v5.58h16.03v-6.97s.7-12.55-2.1-16.04-16.72-.7-16.72-.7ZM629.48 428.36l2.79 18.12v5.58h16.03v-6.97s.7-12.55-2.1-16.04-16.72-.7-16.72-.7Z"/><path fill="#4100f5" d="M640.27 282.78s-6.17 3.25-1.96 10.65 28.93 83.87 28.93 83.87l14.25-4.04-12.57-48.37-7.2-30.4Z"/><circle cx="657.71" cy="260.02" r="16.03" fill="#ffb8b8"/><path fill="#ffb8b8" d="m665.03 262.46-2.1 32.76-14.63-10.45s4.88-19.52 3.48-20.91Z"/><path fill="#4100f5" d="m665.03 292.44-15.77-11.68s-7.23-2.96-9.32.52-12.55 55.07-6.97 64.83c0 0 29.97 6.27 36.24 2.79l2.79-18.13s3.48-11.15-2.1-18.12Z"/><path fill="#4100f5" d="M644.12 281.98s-5.58-4.18-10.46 2.79-63.43 62.04-63.43 62.04l9.76 11.15 38.34-32.07 24.4-19.51Z"/><path fill="#2f2e41" d="M669.56 348.55s-34.5-6.62-37.99-1.74l-.7 7.66s-7.66 14.64-3.48 38.34 1.4 38.34 1.4 38.34 18.81-2.1 32.75 0 16.04 0 16.04 0ZM678.27 449.27l-20.21.7 6.97 52.27s-5.58 22.3.7 23.7a70.71 70.71 0 0 0 13.24 1.4s6.27 6.27 13.24 5.57a39.03 39.03 0 0 0 13.25-4.18s1.39-4.18-3.49-5.58-18.12-5.57-20.91-20.21Z"/><path fill="#2f2e41" d="m649.7 449.27-20.22.7 6.97 52.27s-5.58 22.3.7 23.7a70.71 70.71 0 0 0 13.24 1.4s6.27 6.27 13.24 5.57a39.03 39.03 0 0 0 13.25-4.18s1.4-4.18-3.49-5.58-18.12-5.57-20.9-20.21Z"/><circle cx="667.46" cy="231.7" r="8.78" fill="#2f2e41"/><path fill="#2f2e41" d="M679.17 226.95a8.78 8.78 0 0 0-7.87-8.74 8.88 8.88 0 0 1 .92-.05 8.78 8.78 0 0 1 0 17.57 8.88 8.88 0 0 1-.92-.05 8.78 8.78 0 0 0 7.87-8.73Z"/><ellipse cx="657.56" cy="249.54" fill="#2f2e41" rx="14.64" ry="8.78"/><path fill="#e6e6e6" d="M888.12 42.15a44.68 44.68 0 0 0-87.66-9.42c-.54-.02-1.08-.04-1.62-.04a44.69 44.69 0 0 0-42.87 32.09 31.57 31.57 0 0 0-37.47 9.32h139.37a30.22 30.22 0 0 0 30.28-31.29l-.03-.66Z"/><circle cx="771.61" cy="124.18" r="12" fill="#e6e6e6"/><circle cx="807.85" cy="95.89" r="9.99" fill="#e6e6e6"/><circle cx="856.61" cy="150.18" r="12" fill="#e6e6e6"/><circle cx="765.61" cy="205.18" r="12" fill="#e6e6e6"/><circle cx="856.61" cy="274.18" r="12" fill="#e6e6e6"/><path fill="#e6e6e6" d="m837.6 505.57.01-.4a11.98 11.98 0 0 0-16.98-10.9 11.97 11.97 0 0 0-20.83 9.92l-.19-.01a12 12 0 1 0 7.34 21.48 12 12 0 0 0 20.62 1.22 11.99 11.99 0 1 0 10.02-21.31Z"/><circle cx="867.61" cy="226.18" r="5" fill="#e6e6e6"/><circle cx="835.61" cy="106.18" r="5" fill="#e6e6e6"/><circle cx="818.61" cy="230.18" r="5" fill="#e6e6e6"/><circle cx="822.61" cy="225.18" r="5" fill="#e6e6e6"/><circle cx="825.61" cy="220.18" r="5" fill="#e6e6e6"/><circle cx="813.61" cy="262.18" r="5" fill="#e6e6e6"/><circle cx="887.61" cy="318.18" r="5" fill="#e6e6e6"/><circle cx="780.61" cy="321.18" r="5" fill="#e6e6e6"/><circle cx="786.61" cy="167.18" r="5" fill="#e6e6e6"/><circle cx="809.61" cy="257.18" r="5" fill="#e6e6e6"/><circle cx="804.61" cy="249.18" r="5" fill="#e6e6e6"/></svg>