<svg aria-labelledby="svgicon" viewBox="0 0 512 512" height="48" width="48" xmlns="http://www.w3.org/2000/svg"><title id="svgicon">RecoMédicales site icon</title><path d="M88.5 1.1c-16.3 2.4-33.7 9.4-46.3 18.8C22.9 34.3 9.8 53.7 3.3 77.5l-2.8 10-.3 163.7C0 391 .2 416.4 1.4 424.8c3.3 21.7 12.4 40 27.9 55.9 15.7 16.1 35.1 26.2 57.2 29.8 13.6 2.2 327.1 2.2 339.8 0 21.9-3.8 40.9-13.8 56.3-29.7 15.1-15.5 24.2-33.2 27.9-54.5 2.2-12.7 2.2-326.2 0-339.8-3.3-20.7-12.2-38.7-26.5-53.9-16-17-36.1-27.6-59-31.1C417 .2 390.6 0 255 .1c-88.3.1-163.2.5-166.5 1zM268 113.6c27.8 3.4 47.7 11.8 63 26.6 16.7 15.9 24.1 35.9 24.1 64.5 0 20.1-5.5 37.5-16.5 52-8.1 10.6-22.7 21.6-36.6 27.3-3 1.3-5.9 2.7-6.4 3.1-.5.4 2.4 5 6.5 10.1 12.8 16.3 48.2 61.9 55.8 72.1l7.4 9.7-1.8 4.6c-2.4 6.4-6.6 10.8-13.3 14.1-4.6 2.3-6.9 2.7-12.8 2.6-13.9-.2-19.4-4.6-36.7-29.4-5.9-8.5-20.1-28.9-31.5-45.4l-20.8-30-25.7-.3-25.7-.2v100.8l-3.2 1.1c-10.2 3.3-24.7 3.6-34.2.8-5.2-1.5-10.1-6.3-11.5-11.2-.8-2.8-1.1-40.4-1.1-127.8 0-134.9-.3-127.3 5.7-133 12.1-11.3 71.7-17.6 115.3-12.1z" fill="#4150f5"></path><path d="M212.8 153c-4.2.4-9.7 1.1-12.2 1.4l-4.6.7.2 50.2.3 50.2 28.5-.1c33.2-.1 40.6-1.1 53.6-7.4 16.2-7.9 24.3-18.9 26.6-36.2 2.2-16.7-1.7-31-11.2-41.2-9-9.6-19.5-14.5-37-17.1-9.9-1.5-30.9-1.8-44.2-.5z" fill="#4150f5"></path></svg>